<svg width="24" height="24" viewBox="0 0 24 24" fill="none" xmlns="http://www.w3.org/2000/svg">
<g filter="url(#filter0_i_eye)">
<path d="M2.42012 12.7132C2.28392 12.4975 2.21582 12.3897 2.1777 12.2234C2.14908 12.0985 2.14908 11.9015 2.1777 11.7766C2.21582 11.6103 2.28392 11.5025 2.42012 11.2868C3.54553 9.50484 6.8954 5 12.0004 5C17.1054 5 20.4553 9.50484 21.5807 11.2868C21.7169 11.5025 21.785 11.6103 21.8231 11.7766C21.8517 11.9015 21.8517 12.0985 21.8231 12.2234C21.785 12.3897 21.7169 12.4975 21.5807 12.7132C20.4553 14.4952 17.1054 19 12.0004 19C6.8954 19 3.54553 14.4952 2.42012 12.7132Z" stroke="#EDEDED" stroke-width="2" stroke-linecap="round" stroke-linejoin="round"/>
<path d="M12.0004 15C13.6573 15 15.0004 13.6569 15.0004 12C15.0004 10.3431 13.6573 9 12.0004 9C10.3436 9 9.00042 10.3431 9.00042 12C9.00042 13.6569 10.3436 15 12.0004 15Z" stroke="#EDEDED" stroke-width="2" stroke-linecap="round" stroke-linejoin="round"/>
</g>
<defs>
<filter id="filter0_i_eye" x="1.15625" y="4" width="21.6883" height="20" filterUnits="userSpaceOnUse" color-interpolation-filters="sRGB">
<feFlood flood-opacity="0" result="BackgroundImageFix"/>
<feBlend mode="normal" in="SourceGraphic" in2="BackgroundImageFix" result="shape"/>
<feColorMatrix in="SourceAlpha" type="matrix" values="0 0 0 0 0 0 0 0 0 0 0 0 0 0 0 0 0 0 127 0" result="hardAlpha"/>
<feOffset dy="4"/>
<feGaussianBlur stdDeviation="2"/>
<feComposite in2="hardAlpha" operator="arithmetic" k2="-1" k3="1"/>
<feColorMatrix type="matrix" values="0 0 0 0 0 0 0 0 0 0 0 0 0 0 0 0 0 0 0.17 0"/>
<feBlend mode="normal" in2="shape" result="effect1_innerShadow_eye"/>
</filter>
</defs>
</svg>
